<svg width="221" height="42" viewBox="0 0 221 42" fill="none" xmlns="http://www.w3.org/2000/svg">
<g filter="url(#filter0_d_15_2)">
<path d="M13.3766 32.9547L5.06172 33C4.91068 33 4.83516 32.9245 4.83516 32.7734L4.92578 0.896095C4.92578 0.775262 4.9862 0.714845 5.10703 0.714845L13.7844 0.669533C15.5062 0.62422 17.062 1.01693 18.4516 1.84766C19.8562 2.67839 20.974 3.80365 21.8047 5.22344C22.6505 6.62813 23.0734 8.18386 23.0734 9.89063V23.2125C23.0734 24.9948 22.643 26.626 21.782 28.1063C20.906 29.5714 19.743 30.7419 18.293 31.618C16.843 32.4789 15.2042 32.9245 13.3766 32.9547ZM13.7844 6.22031L10.5445 6.26563L10.4992 27.2906H13.3766C14.5245 27.2906 15.4911 26.8904 16.2766 26.0898C17.062 25.2893 17.4547 24.3302 17.4547 23.2125V9.84531C17.4547 8.86354 17.0922 8.01016 16.3672 7.28516C15.6422 6.54505 14.7812 6.19011 13.7844 6.22031ZM41.9008 33H26.9023C26.7815 33 26.7211 32.9245 26.7211 32.7734L26.7664 0.896095C26.7664 0.775262 26.8268 0.714845 26.9477 0.714845H41.8555C41.9763 0.714845 42.0367 0.790366 42.0367 0.941408V6.12969C42.0367 6.25052 41.9763 6.31094 41.8555 6.31094H32.3398V13.5609H41.8555C41.9763 13.5609 42.0367 13.6214 42.0367 13.7422L42.082 18.9984C42.082 19.1193 42.0216 19.1797 41.9008 19.1797H32.3398V27.2906H41.9008C42.0216 27.2906 42.082 27.3661 42.082 27.5172V32.8188C42.082 32.9396 42.0216 33 41.9008 33ZM61.3852 33H46.3867C46.2659 33 46.2055 32.9245 46.2055 32.7734L46.2508 0.941408C46.2508 0.790366 46.3263 0.714845 46.4773 0.714845H51.643C51.794 0.714845 51.8695 0.790366 51.8695 0.941408L51.8242 27.2906H61.3852C61.5362 27.2906 61.6117 27.3661 61.6117 27.5172V32.7734C61.6117 32.9245 61.5362 33 61.3852 33ZM70.1305 33H64.8742C64.7232 33 64.6477 32.9245 64.6477 32.7734L64.693 0.896095C64.693 0.775262 64.7534 0.714845 64.8742 0.714845H70.0852C70.206 0.714845 70.2664 0.775262 70.2664 0.896095L70.3117 32.7734C70.3117 32.9245 70.2513 33 70.1305 33ZM85.2195 33H79.6008C79.4648 33 79.3893 32.9245 79.3742 32.7734L72.9625 0.896095C72.9323 0.775262 72.9927 0.714845 73.1437 0.714845H78.4C78.5208 0.714845 78.5963 0.775262 78.6266 0.896095L82.4328 22.1477L86.1484 0.896095C86.1786 0.775262 86.2542 0.714845 86.375 0.714845H91.5633C91.7294 0.714845 91.7898 0.775262 91.7445 0.896095L85.4461 32.7734C85.431 32.9245 85.3555 33 85.2195 33ZM109.643 33H94.6445C94.5237 33 94.4633 32.9245 94.4633 32.7734L94.5086 0.896095C94.5086 0.775262 94.569 0.714845 94.6898 0.714845H109.598C109.718 0.714845 109.779 0.790366 109.779 0.941408V6.12969C109.779 6.25052 109.718 6.31094 109.598 6.31094H100.082V13.5609H109.598C109.718 13.5609 109.779 13.6214 109.779 13.7422L109.824 18.9984C109.824 19.1193 109.764 19.1797 109.643 19.1797H100.082V27.2906H109.643C109.764 27.2906 109.824 27.3661 109.824 27.5172V32.8188C109.824 32.9396 109.764 33 109.643 33ZM119.385 33H114.129C114.008 33 113.948 32.9245 113.948 32.7734L114.038 0.896095C114.038 0.775262 114.099 0.714845 114.22 0.714845H123.599C125.276 0.714845 126.816 1.12266 128.221 1.93828C129.626 2.75391 130.743 3.84896 131.574 5.22344C132.42 6.59792 132.843 8.15365 132.843 9.89063C132.843 11.0234 132.669 12.0505 132.322 12.9719C131.974 13.8932 131.567 14.6711 131.098 15.3055C130.645 15.9398 130.23 16.4081 129.852 16.7102C131.529 18.568 132.367 20.7505 132.367 23.2578L132.412 32.7734C132.412 32.9245 132.337 33 132.186 33H126.93C126.809 33 126.748 32.9547 126.748 32.8641V23.2578C126.748 22.1401 126.356 21.1734 125.57 20.3578C124.785 19.5422 123.818 19.1344 122.67 19.1344H119.612L119.566 32.7734C119.566 32.9245 119.506 33 119.385 33ZM123.599 6.26563H119.612V13.5609H123.599C124.551 13.5609 125.397 13.206 126.137 12.4961C126.892 11.7862 127.27 10.9177 127.27 9.89063C127.27 8.90886 126.907 8.06302 126.182 7.35313C125.457 6.62813 124.596 6.26563 123.599 6.26563ZM146.006 33H140.682C140.576 33 140.523 32.9396 140.523 32.8188L140.569 19.6328L134.361 0.896095C134.331 0.775262 134.376 0.714845 134.497 0.714845H139.662C139.814 0.714845 139.904 0.775262 139.934 0.896095L143.355 13.3797L146.845 0.896095C146.875 0.775262 146.95 0.714845 147.071 0.714845H152.282C152.403 0.714845 152.448 0.775262 152.418 0.896095L146.142 19.4516L146.187 32.8188C146.187 32.9396 146.127 33 146.006 33Z" fill="white"/>
<path d="M160.393 33H155.137C155.016 33 154.955 32.9245 154.955 32.7734L155.001 0.896095C155.001 0.775262 155.076 0.714845 155.227 0.714845H160.393C160.544 0.714845 160.62 0.775262 160.62 0.896095L160.574 13.5156H167.53V0.896095C167.53 0.775262 167.59 0.714845 167.711 0.714845H172.877C173.028 0.714845 173.103 0.775262 173.103 0.896095L173.194 32.7734C173.194 32.9245 173.118 33 172.967 33H167.756C167.605 33 167.53 32.9245 167.53 32.7734V19.1344H160.574V32.7734C160.574 32.9245 160.514 33 160.393 33ZM185.519 33.4531C183.887 33.4531 182.377 33.0302 180.987 32.1844C179.598 31.3385 178.488 30.2057 177.657 28.7859C176.841 27.351 176.434 25.7878 176.434 24.0961L176.524 0.896095C176.524 0.775262 176.585 0.714845 176.705 0.714845H181.916C182.037 0.714845 182.098 0.775262 182.098 0.896095V24.0961C182.098 25.1383 182.43 26.0294 183.095 26.7695C183.759 27.4945 184.567 27.857 185.519 27.857C186.516 27.857 187.346 27.4945 188.011 26.7695C188.676 26.0294 189.008 25.1383 189.008 24.0961V0.896095C189.008 0.775262 189.068 0.714845 189.189 0.714845H194.4C194.521 0.714845 194.581 0.775262 194.581 0.896095L194.672 24.0961C194.672 25.8029 194.264 27.3737 193.448 28.8086C192.618 30.2284 191.515 31.3612 190.141 32.207C188.766 33.0378 187.226 33.4531 185.519 33.4531ZM206.816 33H198.501C198.38 33 198.32 32.9245 198.32 32.7734L198.41 0.896095C198.41 0.775262 198.471 0.714845 198.591 0.714845H207.518C209.255 0.714845 210.833 1.13776 212.253 1.9836C213.643 2.82943 214.738 3.95469 215.538 5.35938C216.339 6.74896 216.739 8.25938 216.739 9.89063C216.739 11.2198 216.437 12.4583 215.833 13.6063C215.229 14.7542 214.511 15.6831 213.68 16.393C214.572 17.2841 215.266 18.3188 215.765 19.4969C216.263 20.675 216.512 21.9135 216.512 23.2125C216.512 25.0099 216.082 26.6487 215.221 28.1289C214.345 29.6091 213.174 30.7948 211.709 31.6859C210.244 32.562 208.613 33 206.816 33ZM207.518 6.22031H203.984V13.5156H207.518C208.59 13.5156 209.459 13.138 210.123 12.3828C210.788 11.6125 211.12 10.7818 211.12 9.89063C211.12 8.90886 210.765 8.05547 210.055 7.33047C209.346 6.59037 208.5 6.22031 207.518 6.22031ZM206.816 19.1344H203.984L203.938 27.3359H206.816C207.933 27.3359 208.892 26.9281 209.693 26.1125C210.493 25.2969 210.894 24.3302 210.894 23.2125C210.894 22.0948 210.493 21.1357 209.693 20.3352C208.892 19.5346 207.933 19.1344 206.816 19.1344Z" fill="#1A75FA"/>
<path d="M13.3766 32.9547L13.382 33.9547L13.3931 33.9546L13.3766 32.9547ZM5.06172 33V34L5.06717 34L5.06172 33ZM4.83516 32.7734L3.83516 32.7706V32.7734H4.83516ZM4.92578 0.896095L5.92578 0.898939V0.896095H4.92578ZM5.10703 0.714846V1.71486L5.11225 1.71483L5.10703 0.714846ZM13.7844 0.669533L13.7896 1.66952L13.8001 1.66946L13.8107 1.66919L13.7844 0.669533ZM18.4516 1.84766L17.9384 2.70598L17.9425 2.7084L18.4516 1.84766ZM21.8047 5.22344L20.9415 5.72849L20.948 5.73929L21.8047 5.22344ZM21.782 28.1063L22.6404 28.6195L22.6464 28.609L21.782 28.1063ZM18.293 31.618L18.8035 32.4778L18.8101 32.4739L18.293 31.618ZM13.7844 6.22031L13.7984 7.22022L13.8065 7.2201L13.8147 7.21985L13.7844 6.22031ZM10.5445 6.26563L10.5305 5.26572L9.54665 5.27949L9.54453 6.26347L10.5445 6.26563ZM10.4992 27.2906L9.49922 27.2885L9.49706 28.2906H10.4992V27.2906ZM16.3672 7.28516L15.6528 7.98497L15.6601 7.99226L16.3672 7.28516ZM13.3711 31.9547L5.05627 32L5.06717 34L13.382 33.9547L13.3711 31.9547ZM5.06172 32C5.14034 32 5.38298 32.0203 5.5989 32.2363C5.81482 32.4522 5.83516 32.6948 5.83516 32.7734H3.83516C3.83516 33.0031 3.89325 33.359 4.18469 33.6505C4.47613 33.9419 4.83205 34 5.06172 34V32ZM5.83515 32.7763L5.92578 0.898939L3.92579 0.893253L3.83516 32.7706L5.83515 32.7763ZM5.92578 0.896095C5.92578 0.989824 5.90167 1.24379 5.6782 1.46726C5.45473 1.69074 5.20076 1.71485 5.10703 1.71485V-0.285154C4.89247 -0.285154 4.54787 -0.230837 4.26399 0.053051C3.9801 0.336939 3.92578 0.681534 3.92578 0.896095H5.92578ZM5.11225 1.71483L13.7896 1.66952L13.7792 -0.330454L5.10181 -0.285141L5.11225 1.71483ZM13.8107 1.66919C15.3557 1.62853 16.7222 1.97886 17.9384 2.70597L18.9647 0.989344C17.4018 0.0549984 15.6568 -0.380089 13.7581 -0.330122L13.8107 1.66919ZM17.9425 2.7084C19.1996 3.45186 20.196 4.45418 20.9416 5.72845L22.6678 4.71843C21.7519 3.15311 20.5129 1.90491 18.9606 0.986916L17.9425 2.7084ZM20.948 5.73929C21.6961 6.98171 22.0734 8.35785 22.0734 9.89062H24.0734C24.0734 8.00986 23.6049 6.27454 22.6614 4.70759L20.948 5.73929ZM22.0734 9.89062V23.2125H24.0734V9.89062H22.0734ZM22.0734 23.2125C22.0734 24.8257 21.686 26.2823 20.9176 27.6035L22.6464 28.609C23.5999 26.9698 24.0734 25.1639 24.0734 23.2125H22.0734ZM20.9238 27.5931C20.131 28.9188 19.0847 29.9713 17.7759 30.7621L18.8101 32.4739C20.4012 31.5126 21.681 30.2239 22.6403 28.6194L20.9238 27.5931ZM17.7824 30.7581C16.4945 31.5228 15.0286 31.9272 13.36 31.9548L13.3931 33.9546C15.3797 33.9217 17.1914 33.435 18.8035 32.4778L17.7824 30.7581ZM13.7704 5.22041L10.5305 5.26572L10.5585 7.26553L13.7984 7.22022L13.7704 5.22041ZM9.54453 6.26347L9.49922 27.2885L11.4992 27.2928L11.5445 6.26778L9.54453 6.26347ZM10.4992 28.2906H13.3766V26.2906H10.4992V28.2906ZM13.3766 28.2906C14.7859 28.2906 16.012 27.7874 16.9904 26.7902L15.5628 25.3895C14.9703 25.9933 14.2631 26.2906 13.3766 26.2906V28.2906ZM16.9904 26.7902C17.9585 25.8034 18.4547 24.5931 18.4547 23.2125H16.4547C16.4547 24.0673 16.1654 24.7752 15.5628 25.3895L16.9904 26.7902ZM18.4547 23.2125V9.84531H16.4547V23.2125H18.4547ZM18.4547 9.84531C18.4547 8.5855 17.9776 7.48132 17.0743 6.57805L15.6601 7.99226C16.2068 8.53899 16.4547 9.14159 16.4547 9.84531H18.4547ZM17.0815 6.58538C16.1697 5.6545 15.0422 5.18174 13.7541 5.22077L13.8147 7.21985C14.5203 7.19847 15.1147 7.43561 15.6528 7.98494L17.0815 6.58538ZM26.7211 32.7734L25.7211 32.772V32.7734H26.7211ZM26.7664 0.896095L27.7664 0.897516V0.896095H26.7664ZM32.3398 6.31094V5.31094H31.3398V6.31094H32.3398ZM32.3398 13.5609H31.3398V14.5609H32.3398V13.5609ZM42.0367 13.7422H41.0367L41.0368 13.7508L42.0367 13.7422ZM42.082 18.9984H43.0821L43.082 18.9898L42.082 18.9984ZM32.3398 19.1797V18.1797H31.3398V19.1797H32.3398ZM32.3398 27.2906H31.3398V28.2906H32.3398V27.2906ZM41.9008 32H26.9023V34H41.9008V32ZM26.9023 32C27.0626 32 27.3413 32.0611 27.5473 32.3187C27.7192 32.5336 27.7211 32.7421 27.7211 32.7734H25.7211C25.7211 32.9558 25.7532 33.2776 25.9855 33.5681C26.252 33.9011 26.6212 34 26.9023 34V32ZM27.7211 32.7749L27.7664 0.897516L25.7664 0.894674L25.7211 32.772L27.7211 32.7749ZM27.7664 0.896095C27.7664 0.989824 27.7423 1.24379 27.5188 1.46726C27.2954 1.69074 27.0414 1.71485 26.9477 1.71485V-0.285154C26.7331 -0.285154 26.3885 -0.230837 26.1046 0.053051C25.8207 0.336939 25.7664 0.681534 25.7664 0.896095H27.7664ZM26.9477 1.71485H41.8555V-0.285154H26.9477V1.71485ZM41.8555 1.71485C41.6952 1.71485 41.4165 1.6537 41.2105 1.39618C41.0386 1.18127 41.0367 0.972729 41.0367 0.941408H43.0367C43.0367 0.759045 43.0046 0.43722 42.7723 0.146791C42.5058 -0.186249 42.1366 -0.285154 41.8555 -0.285154V1.71485ZM41.0367 0.941408V6.12969H43.0367V0.941408H41.0367ZM41.0367 6.12969C41.0367 6.03596 41.0608 5.78199 41.2843 5.55852C41.5078 5.33505 41.7617 5.31094 41.8555 5.31094V7.31094C42.07 7.31094 42.4146 7.25662 42.6985 6.97273C42.9824 6.68884 43.0367 6.34425 43.0367 6.12969H41.0367ZM41.8555 5.31094H32.3398V7.31094H41.8555V5.31094ZM31.3398 6.31094V13.5609H33.3398V6.31094H31.3398ZM32.3398 14.5609H41.8555V12.5609H32.3398V14.5609ZM41.8555 14.5609C41.7617 14.5609 41.5078 14.5368 41.2843 14.3134C41.0608 14.0899 41.0367 13.8359 41.0367 13.7422H43.0367C43.0367 13.5276 42.9824 13.183 42.6985 12.8991C42.4146 12.6153 42.07 12.5609 41.8555 12.5609V14.5609ZM41.0368 13.7508L41.0821 19.0071L43.082 18.9898L43.0367 13.7336L41.0368 13.7508ZM41.082 18.9984C41.082 18.9047 41.1061 18.6507 41.3296 18.4273C41.5531 18.2038 41.8071 18.1797 41.9008 18.1797V20.1797C42.1153 20.1797 42.4599 20.1254 42.7438 19.8415C43.0277 19.5576 43.082 19.213 43.082 18.9984H41.082ZM41.9008 18.1797H32.3398V20.1797H41.9008V18.1797ZM31.3398 19.1797V27.2906H33.3398V19.1797H31.3398ZM32.3398 28.2906H41.9008V26.2906H32.3398V28.2906ZM41.9008 28.2906C41.7405 28.2906 41.4619 28.2295 41.2558 27.972C41.0839 27.7571 41.082 27.5485 41.082 27.5172H43.082C43.082 27.3348 43.0499 27.013 42.8176 26.7226C42.5512 26.3895 42.1819 26.2906 41.9008 26.2906V28.2906ZM41.082 27.5172V32.8187H43.082V27.5172H41.082ZM41.082 32.8187C41.082 32.725 41.1061 32.4711 41.3296 32.2476C41.5531 32.0241 41.8071 32 41.9008 32V34C42.1153 34 42.4599 33.9457 42.7438 33.6618C43.0277 33.3779 43.082 33.0333 43.082 32.8187H41.082ZM46.2055 32.7734L45.2055 32.772V32.7734H46.2055ZM46.2508 0.941408L47.2508 0.942831V0.941408H46.2508ZM51.8695 0.941408L52.8695 0.943127V0.941408H51.8695ZM51.8242 27.2906L50.8242 27.2889L50.8225 28.2906H51.8242V27.2906ZM61.3852 32H46.3867V34H61.3852V32ZM46.3867 32C46.547 32 46.8256 32.0611 47.0316 32.3187C47.2036 32.5336 47.2055 32.7421 47.2055 32.7734H45.2055C45.2055 32.9558 45.2376 33.2776 45.4699 33.5681C45.7363 33.9011 46.1056 34 46.3867 34V32ZM47.2055 32.7749L47.2508 0.942831L45.2508 0.939985L45.2055 32.772L47.2055 32.7749ZM47.2508 0.941408C47.2508 1.02003 47.2304 1.26267 47.0145 1.47859C46.7986 1.69451 46.556 1.71485 46.4773 1.71485V-0.285154C46.2477 -0.285154 45.8918 -0.22706 45.6003 0.0643787C45.3089 0.35582 45.2508 0.711742 45.2508 0.941408H47.2508ZM46.4773 1.71485H51.643V-0.285154H46.4773V1.71485ZM51.643 1.71485C51.5643 1.71485 51.3217 1.69451 51.1058 1.47859C50.8899 1.26267 50.8695 1.02003 50.8695 0.941408H52.8695C52.8695 0.711742 52.8114 0.35582 52.52 0.0643787C52.2286 -0.22706 51.8726 -0.285154 51.643 -0.285154V1.71485ZM50.8695 0.939688L50.8242 27.2889L52.8242 27.2923L52.8695 0.943127L50.8695 0.939688ZM51.8242 28.2906H61.3852V26.2906H51.8242V28.2906ZM61.3852 28.2906C61.3065 28.2906 61.0639 28.2703 60.848 28.0544C60.632 27.8385 60.6117 27.5958 60.6117 27.5172H62.6117C62.6117 27.2875 62.5536 26.9316 62.2622 26.6402C61.9707 26.3487 61.6148 26.2906 61.3852 26.2906V28.2906ZM60.6117 27.5172V32.7734H62.6117V27.5172H60.6117ZM60.6117 32.7734C60.6117 32.6948 60.632 32.4522 60.848 32.2363C61.0639 32.0203 61.3065 32 61.3852 32V34C61.6148 34 61.9707 33.9419 62.2622 33.6505C62.5536 33.359 62.6117 33.0031 62.6117 32.7734H60.6117ZM64.6477 32.7734L63.6477 32.772V32.7734H64.6477ZM64.693 0.896095L65.693 0.897516V0.896095H64.693ZM70.2664 0.896095H69.2664V0.897516L70.2664 0.896095ZM70.3117 32.7734H71.3117V32.772L70.3117 32.7734ZM70.1305 32H64.8742V34H70.1305V32ZM64.8742 32C64.9528 32 65.1955 32.0203 65.4114 32.2363C65.6273 32.4522 65.6477 32.6948 65.6477 32.7734H63.6477C63.6477 33.0031 63.7057 33.359 63.9972 33.6505C64.2886 33.9419 64.6446 34 64.8742 34V32ZM65.6477 32.7749L65.693 0.897516L63.693 0.894674L63.6477 32.772L65.6477 32.7749ZM65.693 0.896095C65.693 0.989824 65.6689 1.24379 65.4454 1.46726C65.2219 1.69074 64.9679 1.71485 64.8742 1.71485V-0.285154C64.6597 -0.285154 64.3151 -0.230837 64.0312 0.053051C63.7473 0.336939 63.693 0.681534 63.693 0.896095H65.693ZM64.8742 1.71485H70.0852V-0.285154H64.8742V1.71485ZM70.0852 1.71485C69.9914 1.71485 69.7375 1.69074 69.514 1.46726C69.2905 1.24379 69.2664 0.989824 69.2664 0.896095H71.2664C71.2664 0.681534 71.2121 0.336939 70.9282 0.053051C70.6443 -0.230837 70.2997 -0.285154 70.0852 -0.285154V1.71485ZM69.2664 0.897516L69.3117 32.7749L71.3117 32.772L71.2664 0.894674L69.2664 0.897516ZM69.3117 32.7734C69.3117 32.7421 69.3136 32.5336 69.4855 32.3187C69.6916 32.0611 69.9702 32 70.1305 32V34C70.4116 34 70.7808 33.9011 71.0473 33.5681C71.2796 33.2776 71.3117 32.9558 71.3117 32.7734H69.3117ZM79.3742 32.7734L80.3692 32.6739L80.3643 32.6247L80.3546 32.5762L79.3742 32.7734ZM72.9625 0.896095L73.9429 0.698908L73.9383 0.676115L73.9326 0.653561L72.9625 0.896095ZM78.6266 0.896095L79.6109 0.719797L79.6049 0.686438L79.5967 0.653561L78.6266 0.896095ZM82.4328 22.1477L81.4485 22.324L83.4179 22.3199L82.4328 22.1477ZM86.1484 0.896095L85.1783 0.653561L85.1696 0.688446L85.1634 0.723867L86.1484 0.896095ZM91.7445 0.896095L90.8082 0.544971L90.7794 0.621782L90.7635 0.702259L91.7445 0.896095ZM85.4461 32.7734L84.465 32.5796L84.4558 32.6264L84.451 32.6739L85.4461 32.7734ZM85.2195 32H79.6008V34H85.2195V32ZM79.6008 32C79.7221 32 79.9519 32.0388 80.1493 32.2363C80.3314 32.4184 80.3633 32.6147 80.3692 32.6739L78.3792 32.8729C78.4002 33.0832 78.4774 33.3928 78.7351 33.6505C79.008 33.9234 79.3435 34 79.6008 34V32ZM80.3546 32.5762L73.9429 0.698908L71.9821 1.09328L78.3938 32.9706L80.3546 32.5762ZM73.9326 0.653561C73.9601 0.763559 74.0135 1.14602 73.6923 1.46726C73.4345 1.72498 73.1459 1.71485 73.1437 1.71485V-0.285154C72.9905 -0.285154 72.5962 -0.265079 72.278 0.053051C71.8964 0.434708 71.9346 0.907799 71.9923 1.13863L73.9326 0.653561ZM73.1437 1.71485H78.4V-0.285154H73.1437V1.71485ZM78.4 1.71485C78.2913 1.71485 78.1026 1.68507 77.9226 1.54103C77.7457 1.3995 77.679 1.22907 77.6564 1.13863L79.5967 0.653561C79.5439 0.442287 79.4244 0.181236 79.172 -0.0207119C78.9164 -0.225172 78.6295 -0.285154 78.4 -0.285154V1.71485ZM77.6422 1.0724L81.4485 22.324L83.4171 21.9714L79.6109 0.719797L77.6422 1.0724ZM83.4179 22.3199L87.1335 1.06832L85.1634 0.723867L81.4477 21.9754L83.4179 22.3199ZM87.1186 1.13863C87.096 1.22907 87.0293 1.3995 86.8524 1.54103C86.6724 1.68507 86.4837 1.71485 86.375 1.71485V-0.285154C86.1455 -0.285154 85.8586 -0.225172 85.603 -0.0207119C85.3506 0.181236 85.2311 0.442287 85.1783 0.653561L87.1186 1.13863ZM86.375 1.71485H91.5633V-0.285154H86.375V1.71485ZM91.5633 1.71485C91.5508 1.71485 91.493 1.71443 91.4104 1.69241C91.3293 1.67078 91.1733 1.61445 91.0261 1.46726C90.8627 1.30384 90.7785 1.09649 90.7621 0.899843C90.7477 0.726736 90.7879 0.59919 90.8082 0.544971L92.6809 1.24722C92.7616 1.03188 92.8786 0.491371 92.4403 0.053051C92.1096 -0.277641 91.6911 -0.285154 91.5633 -0.285154V1.71485ZM90.7635 0.702259L84.465 32.5796L86.4271 32.9673L92.7256 1.08993L90.7635 0.702259ZM84.451 32.6739C84.457 32.6147 84.4889 32.4184 84.671 32.2363C84.8684 32.0388 85.0982 32 85.2195 32V34C85.4767 34 85.8123 33.9234 86.0852 33.6505C86.3429 33.3928 86.4201 33.0832 86.4411 32.8729L84.451 32.6739ZM94.4633 32.7734L93.4633 32.772V32.7734H94.4633ZM94.5086 0.896095L95.5086 0.897516V0.896095H94.5086ZM100.082 6.31094V5.31094H99.082V6.31094H100.082ZM100.082 13.5609H99.082V14.5609H100.082V13.5609ZM109.779 13.7422H108.779L108.779 13.7508L109.779 13.7422ZM109.824 18.9984H110.824L110.824 18.9898L109.824 18.9984ZM100.082 19.1797V18.1797H99.082V19.1797H100.082ZM100.082 27.2906H99.082V28.2906H100.082V27.2906ZM109.643 32H94.6445V34H109.643V32ZM94.6445 32C94.8048 32 95.0834 32.0611 95.2895 32.3187C95.4614 32.5336 95.4633 32.7421 95.4633 32.7734H93.4633C93.4633 32.9558 93.4954 33.2776 93.7277 33.5681C93.9941 33.9011 94.3634 34 94.6445 34V32ZM95.4633 32.7749L95.5086 0.897516L93.5086 0.894674L93.4633 32.772L95.4633 32.7749ZM95.5086 0.896095C95.5086 0.989824 95.4845 1.24379 95.261 1.46726C95.0375 1.69074 94.7836 1.71485 94.6898 1.71485V-0.285154C94.4753 -0.285154 94.1307 -0.230837 93.8468 0.053051C93.5629 0.336939 93.5086 0.681534 93.5086 0.896095H95.5086ZM94.6898 1.71485H109.598V-0.285154H94.6898V1.71485ZM109.598 1.71485C109.437 1.71485 109.159 1.6537 108.953 1.39618C108.781 1.18127 108.779 0.972729 108.779 0.941408H110.779C110.779 0.759045 110.747 0.43722 110.514 0.146791C110.248 -0.186249 109.879 -0.285154 109.598 -0.285154V1.71485ZM108.779 0.941408V6.12969H110.779V0.941408H108.779ZM108.779 6.12969C108.779 6.03596 108.803 5.78199 109.026 5.55852C109.25 5.33505 109.504 5.31094 109.598 5.31094V7.31094C109.812 7.31094 110.157 7.25662 110.441 6.97273C110.725 6.68884 110.779 6.34425 110.779 6.12969H108.779ZM109.598 5.31094H100.082V7.31094H109.598V5.31094ZM99.082 6.31094V13.5609H101.082V6.31094H99.082ZM100.082 14.5609H109.598V12.5609H100.082V14.5609ZM109.598 14.5609C109.504 14.5609 109.25 14.5368 109.026 14.3134C108.803 14.0899 108.779 13.8359 108.779 13.7422H110.779C110.779 13.5276 110.725 13.183 110.441 12.8991C110.157 12.6153 109.812 12.5609 109.598 12.5609V14.5609ZM108.779 13.7508L108.824 19.0071L110.824 18.9898L110.779 13.7336L108.779 13.7508ZM108.824 18.9984C108.824 18.9047 108.848 18.6507 109.072 18.4273C109.295 18.2038 109.549 18.1797 109.643 18.1797V20.1797C109.858 20.1797 110.202 20.1254 110.486 19.8415C110.77 19.5576 110.824 19.213 110.824 18.9984H108.824ZM109.643 18.1797H100.082V20.1797H109.643V18.1797ZM99.082 19.1797V27.2906H101.082V19.1797H99.082ZM100.082 28.2906H109.643V26.2906H100.082V28.2906ZM109.643 28.2906C109.483 28.2906 109.204 28.2295 108.998 27.972C108.826 27.7571 108.824 27.5485 108.824 27.5172H110.824C110.824 27.3348 110.792 27.013 110.56 26.7226C110.293 26.3895 109.924 26.2906 109.643 26.2906V28.2906ZM108.824 27.5172V32.8187H110.824V27.5172H108.824ZM108.824 32.8187C108.824 32.725 108.848 32.4711 109.072 32.2476C109.295 32.0241 109.549 32 109.643 32V34C109.858 34 110.202 33.9457 110.486 33.6618C110.77 33.3779 110.824 33.0333 110.824 32.8187H108.824ZM113.948 32.7734L112.948 32.7706V32.7734H113.948ZM114.038 0.896095L115.038 0.898939V0.896095H114.038ZM131.574 5.22344L130.718 5.74072L130.723 5.74754L131.574 5.22344ZM131.098 15.3055L130.294 14.7116L130.289 14.7179L130.285 14.7242L131.098 15.3055ZM129.852 16.7102L129.228 15.9293L128.399 16.5923L129.11 17.3801L129.852 16.7102ZM132.367 23.2578H131.367L131.367 23.2626L132.367 23.2578ZM132.412 32.7734H133.413L133.412 32.7687L132.412 32.7734ZM119.612 19.1344V18.1344H118.615L118.612 19.1311L119.612 19.1344ZM119.566 32.7734L118.566 32.7701V32.7734H119.566ZM119.612 6.26563V5.26563H118.612V6.26563H119.612ZM119.612 13.5609H118.612V14.5609H119.612V13.5609ZM126.137 12.4961L125.452 11.7674L125.444 11.7744L126.137 12.4961ZM126.182 7.35313L125.475 8.06027L125.482 8.06764L126.182 7.35313ZM119.385 32H114.129V34H119.385V32ZM114.129 32C114.289 32 114.568 32.0611 114.774 32.3187C114.946 32.5336 114.948 32.7421 114.948 32.7734H112.948C112.948 32.9558 112.98 33.2776 113.212 33.5681C113.479 33.9011 113.848 34 114.129 34V32ZM114.948 32.7763L115.038 0.898939L113.038 0.893253L112.948 32.7706L114.948 32.7763ZM115.038 0.896095C115.038 0.989824 115.014 1.24379 114.791 1.46726C114.567 1.69074 114.313 1.71485 114.22 1.71485V-0.285154C114.005 -0.285154 113.66 -0.230837 113.376 0.053051C113.093 0.336939 113.038 0.681534 113.038 0.896095H115.038ZM114.22 1.71485H123.599V-0.285154H114.22V1.71485ZM123.599 1.71485C125.105 1.71485 126.472 2.07894 127.719 2.80307L128.723 1.07349C127.161 0.166374 125.446 -0.285154 123.599 -0.285154V1.71485ZM127.719 2.80307C128.98 3.53539 129.976 4.51162 130.718 5.7407L132.43 4.70618C131.511 3.1863 130.271 1.97243 128.723 1.07349L127.719 2.80307ZM130.723 5.74754C131.464 6.95236 131.843 8.32404 131.843 9.89062H133.843C133.843 7.98326 133.376 6.24347 132.426 4.69934L130.723 5.74754ZM131.843 9.89062C131.843 10.9208 131.685 11.8261 131.386 12.6191L133.258 13.3247C133.653 12.275 133.843 11.1261 133.843 9.89062H131.843ZM131.386 12.6191C131.064 13.4748 130.696 14.1669 130.294 14.7116L131.903 15.8993C132.437 15.1753 132.885 14.3117 133.258 13.3247L131.386 12.6191ZM130.285 14.7242C129.857 15.3235 129.503 15.7089 129.228 15.9293L130.477 17.491C130.957 17.1073 131.434 16.5562 131.912 15.8867L130.285 14.7242ZM129.11 17.3801C130.62 19.0538 131.367 20.9975 131.367 23.2578H133.367C133.367 20.5035 132.437 18.0821 130.595 16.0402L129.11 17.3801ZM131.367 23.2626L131.413 32.7782L133.412 32.7687L133.367 23.2531L131.367 23.2626ZM131.412 32.7734C131.412 32.6948 131.433 32.4522 131.649 32.2363C131.865 32.0203 132.107 32 132.186 32V34C132.416 34 132.772 33.9419 133.063 33.6505C133.354 33.359 133.412 33.0031 133.412 32.7734H131.412ZM132.186 32H126.93V34H132.186V32ZM126.93 32C126.965 32 127.175 32.0016 127.394 32.166C127.667 32.371 127.748 32.6654 127.748 32.8641H125.748C125.748 33.1534 125.86 33.5157 126.194 33.766C126.473 33.9757 126.773 34 126.93 34V32ZM127.748 32.8641V23.2578H125.748V32.8641H127.748ZM127.748 23.2578C127.748 21.8777 127.253 20.6634 126.291 19.6642L124.85 21.0515C125.459 21.6835 125.748 22.4025 125.748 23.2578H127.748ZM126.291 19.6642C125.314 18.6498 124.086 18.1344 122.67 18.1344V20.1344C123.551 20.1344 124.256 20.4346 124.85 21.0515L126.291 19.6642ZM122.67 18.1344H119.612V20.1344H122.67V18.1344ZM118.612 19.1311L118.566 32.7701L120.566 32.7768L120.612 19.1377L118.612 19.1311ZM118.566 32.7734C118.566 32.7421 118.568 32.5336 118.74 32.3187C118.946 32.0611 119.225 32 119.385 32V34C119.666 34 120.036 33.9011 120.302 33.5681C120.534 33.2776 120.566 32.9558 120.566 32.7734H118.566ZM123.599 5.26563H119.612V7.26563H123.599V5.26563ZM118.612 6.26563V13.5609H120.612V6.26563H118.612ZM119.612 14.5609H123.599V12.5609H119.612V14.5609ZM123.599 14.5609C124.83 14.5609 125.919 14.091 126.829 13.2178L125.444 11.7744C124.875 12.321 124.272 12.5609 123.599 12.5609V14.5609ZM126.822 13.2247C127.776 12.3278 128.27 11.1965 128.27 9.89062H126.27C126.27 10.6389 126.008 11.2446 125.452 11.7675L126.822 13.2247ZM128.27 9.89062C128.27 8.63005 127.792 7.52955 126.882 6.63862L125.482 8.06764C126.023 8.5965 126.27 9.18766 126.27 9.89062H128.27ZM126.889 6.64602C125.983 5.73947 124.87 5.26563 123.599 5.26563V7.26563C124.323 7.26563 124.931 7.51678 125.475 8.06023L126.889 6.64602ZM140.523 32.8187L139.523 32.8153V32.8187H140.523ZM140.569 19.6328L141.569 19.6362L141.569 19.4731L141.518 19.3183L140.569 19.6328ZM134.361 0.896095L133.391 1.13863L133.4 1.17501L133.412 1.2106L134.361 0.896095ZM139.934 0.896095L138.964 1.13863L138.967 1.14955L138.97 1.1604L139.934 0.896095ZM143.355 13.3797L142.391 13.644L143.346 17.1286L144.319 13.6489L143.355 13.3797ZM146.845 0.896095L147.808 1.16527L147.811 1.152L147.815 1.13863L146.845 0.896095ZM152.418 0.896095L153.365 1.21648L153.378 1.17802L153.388 1.13863L152.418 0.896095ZM146.142 19.4516L145.195 19.1312L145.142 19.2887L145.142 19.455L146.142 19.4516ZM146.188 32.8187H147.188L147.187 32.8154L146.188 32.8187ZM146.006 32H140.682V34H146.006V32ZM140.682 32C140.821 32 141.097 32.0458 141.316 32.2962C141.512 32.5211 141.523 32.7554 141.523 32.8187H139.523C139.523 33.0029 139.561 33.3279 139.811 33.6132C140.082 33.924 140.438 34 140.682 34V32ZM141.523 32.8222L141.569 19.6362L139.569 19.6294L139.523 32.8153L141.523 32.8222ZM141.518 19.3183L135.31 0.581591L133.412 1.2106L139.619 19.9473L141.518 19.3183ZM135.331 0.653561C135.342 0.699036 135.42 1.02931 135.172 1.36016C134.915 1.70273 134.561 1.71485 134.497 1.71485V-0.285154C134.312 -0.285154 133.875 -0.242832 133.572 0.160158C133.279 0.551422 133.349 0.972322 133.391 1.13863L135.331 0.653561ZM134.497 1.71485H139.662V-0.285154H134.497V1.71485ZM139.662 1.71485C139.614 1.71485 139.46 1.70631 139.289 1.59221C139.098 1.46459 139 1.28246 138.964 1.13863L140.905 0.653561C140.838 0.388899 140.68 0.116142 140.398 -0.0718918C140.137 -0.246414 139.862 -0.285154 139.662 -0.285154V1.71485ZM138.97 1.1604L142.391 13.644L144.32 13.1154L140.899 0.631794L138.97 1.1604ZM144.319 13.6489L147.808 1.16527L145.881 0.626919L142.392 13.1105L144.319 13.6489ZM147.815 1.13863C147.792 1.22907 147.725 1.3995 147.549 1.54103C147.368 1.68507 147.18 1.71485 147.071 1.71485V-0.285154C146.842 -0.285154 146.555 -0.225172 146.299 -0.0207119C146.047 0.181236 145.927 0.442287 145.874 0.653561L147.815 1.13863ZM147.071 1.71485H152.282V-0.285154H147.071V1.71485ZM152.282 1.71485C152.218 1.71485 151.864 1.70273 151.607 1.36016C151.359 1.02931 151.436 0.699036 151.448 0.653561L153.388 1.13863C153.43 0.972322 153.5 0.551422 153.207 0.160158C152.904 -0.242832 152.467 -0.285154 152.282 -0.285154V1.71485ZM151.471 0.575706L145.195 19.1312L147.089 19.772L153.365 1.21648L151.471 0.575706ZM145.142 19.455L145.188 32.8221L147.187 32.8154L147.142 19.4482L145.142 19.455ZM145.188 32.8187C145.188 32.725 145.212 32.4711 145.435 32.2476C145.659 32.0241 145.913 32 146.006 32V34C146.221 34 146.565 33.9457 146.849 33.6618C147.133 33.3779 147.188 33.0333 147.188 32.8187H145.188ZM154.955 32.7734L153.955 32.772V32.7734H154.955ZM155.001 0.896095L156.001 0.897516V0.896095H155.001ZM160.62 0.896095L161.62 0.899687V0.896095H160.62ZM160.574 13.5156L159.574 13.512L159.571 14.5156H160.574V13.5156ZM167.53 13.5156V14.5156H168.53V13.5156H167.53ZM173.103 0.896095H172.103L172.103 0.898939L173.103 0.896095ZM173.194 32.7734H174.194L174.194 32.7706L173.194 32.7734ZM167.53 19.1344H168.53V18.1344H167.53V19.1344ZM160.574 19.1344V18.1344H159.574V19.1344H160.574ZM160.393 32H155.137V34H160.393V32ZM155.137 32C155.297 32 155.576 32.0611 155.782 32.3187C155.954 32.5336 155.955 32.7421 155.955 32.7734H153.955C153.955 32.9558 153.988 33.2776 154.22 33.5681C154.486 33.9011 154.856 34 155.137 34V32ZM155.955 32.7749L156.001 0.897516L154.001 0.894674L153.955 32.772L155.955 32.7749ZM156.001 0.896095C156.001 1.05638 155.94 1.33501 155.682 1.54103C155.467 1.71295 155.259 1.71485 155.227 1.71485V-0.285154C155.045 -0.285154 154.723 -0.253054 154.433 -0.0207119C154.1 0.24572 154.001 0.614973 154.001 0.896095H156.001ZM155.227 1.71485H160.393V-0.285154H155.227V1.71485ZM160.393 1.71485C160.362 1.71485 160.153 1.71295 159.938 1.54103C159.681 1.33501 159.62 1.05638 159.62 0.896095H161.62C161.62 0.614973 161.521 0.24572 161.188 -0.0207119C160.897 -0.253054 160.575 -0.285154 160.393 -0.285154V1.71485ZM159.62 0.892506L159.574 13.512L161.574 13.5192L161.62 0.899687L159.62 0.892506ZM160.574 14.5156H167.53V12.5156H160.574V14.5156ZM168.53 13.5156V0.896095H166.53V13.5156H168.53ZM168.53 0.896095C168.53 0.989824 168.506 1.24379 168.282 1.46726C168.059 1.69074 167.805 1.71485 167.711 1.71485V-0.285154C167.496 -0.285154 167.152 -0.230837 166.868 0.053051C166.584 0.336939 166.53 0.681534 166.53 0.896095H168.53ZM167.711 1.71485H172.877V-0.285154H167.711V1.71485ZM172.877 1.71485C172.845 1.71485 172.637 1.71295 172.422 1.54103C172.164 1.33501 172.103 1.05638 172.103 0.896095H174.103C174.103 0.614973 174.004 0.24572 173.671 -0.0207119C173.381 -0.253054 173.059 -0.285154 172.877 -0.285154V1.71485ZM172.103 0.898939L172.194 32.7763L174.194 32.7706L174.103 0.893253L172.103 0.898939ZM172.194 32.7734C172.194 32.6948 172.214 32.4522 172.43 32.2363C172.646 32.0203 172.889 32 172.967 32V34C173.197 34 173.553 33.9419 173.844 33.6505C174.136 33.359 174.194 33.0031 174.194 32.7734H172.194ZM172.967 32H167.756V34H172.967V32ZM167.756 32C167.835 32 168.077 32.0203 168.293 32.2363C168.509 32.4522 168.53 32.6948 168.53 32.7734H166.53C166.53 33.0031 166.588 33.359 166.879 33.6505C167.171 33.9419 167.527 34 167.756 34V32ZM168.53 32.7734V19.1344H166.53V32.7734H168.53ZM167.53 18.1344H160.574V20.1344H167.53V18.1344ZM159.574 19.1344V32.7734H161.574V19.1344H159.574ZM159.574 32.7734C159.574 32.7421 159.576 32.5336 159.748 32.3187C159.954 32.0611 160.233 32 160.393 32V34C160.674 34 161.043 33.9011 161.31 33.5681C161.542 33.2776 161.574 32.9558 161.574 32.7734H159.574ZM177.657 28.7859L176.788 29.2801L176.794 29.291L177.657 28.7859ZM176.434 24.0961L175.434 24.0922V24.0961H176.434ZM176.524 0.896095L177.524 0.900002V0.896095H176.524ZM183.095 26.7695L182.35 27.4377L182.357 27.4453L183.095 26.7695ZM188.011 26.7695L188.748 27.4453L188.755 27.4377L188.011 26.7695ZM194.581 0.896095H193.581L193.581 0.900002L194.581 0.896095ZM194.672 24.0961H195.672L195.672 24.0922L194.672 24.0961ZM193.448 28.8086L194.312 29.3136L194.318 29.3028L193.448 28.8086ZM190.141 32.207L190.658 33.0629L190.665 33.0587L190.141 32.207ZM185.519 32.4531C184.07 32.4531 182.74 32.0804 181.507 31.3302L180.468 33.0386C182.014 33.98 183.705 34.4531 185.519 34.4531V32.4531ZM181.507 31.3302C180.261 30.5715 179.268 29.5594 178.52 28.2809L176.794 29.291C177.707 30.8521 178.935 32.1056 180.468 33.0386L181.507 31.3302ZM178.526 28.2918C177.799 27.0114 177.434 25.619 177.434 24.0961H175.434C175.434 25.9565 175.884 27.6907 176.788 29.2801L178.526 28.2918ZM177.434 24.1L177.524 0.900002L175.524 0.892189L175.434 24.0922L177.434 24.1ZM177.524 0.896095C177.524 0.989824 177.5 1.24379 177.277 1.46726C177.053 1.69074 176.799 1.71485 176.705 1.71485V-0.285154C176.491 -0.285154 176.146 -0.230837 175.862 0.053051C175.579 0.336939 175.524 0.681534 175.524 0.896095H177.524ZM176.705 1.71485H181.916V-0.285154H176.705V1.71485ZM181.916 1.71485C181.823 1.71485 181.569 1.69074 181.345 1.46726C181.122 1.24379 181.098 0.989824 181.098 0.896095H183.098C183.098 0.681534 183.043 0.336939 182.759 0.053051C182.476 -0.230837 182.131 -0.285154 181.916 -0.285154V1.71485ZM181.098 0.896095V24.0961H183.098V0.896095H181.098ZM181.098 24.0961C181.098 25.372 181.513 26.5047 182.35 27.4377L183.839 26.1014C183.347 25.5542 183.098 24.9045 183.098 24.0961H181.098ZM182.357 27.4453C183.204 28.369 184.276 28.857 185.519 28.857V26.857C184.858 26.857 184.314 26.62 183.832 26.0938L182.357 27.4453ZM185.519 28.857C186.792 28.857 187.891 28.3801 188.748 27.4453L187.274 26.0938C186.802 26.609 186.24 26.857 185.519 26.857V28.857ZM188.755 27.4377C189.593 26.5047 190.008 25.372 190.008 24.0961H188.008C188.008 24.9045 187.758 25.5542 187.267 26.1014L188.755 27.4377ZM190.008 24.0961V0.896095H188.008V24.0961H190.008ZM190.008 0.896095C190.008 0.989824 189.984 1.24379 189.76 1.46726C189.537 1.69074 189.283 1.71485 189.189 1.71485V-0.285154C188.974 -0.285154 188.63 -0.230837 188.346 0.053051C188.062 0.336939 188.008 0.681534 188.008 0.896095H190.008ZM189.189 1.71485H194.4V-0.285154H189.189V1.71485ZM194.4 1.71485C194.306 1.71485 194.052 1.69074 193.829 1.46726C193.605 1.24379 193.581 0.989824 193.581 0.896095H195.581C195.581 0.681534 195.527 0.336939 195.243 0.053051C194.959 -0.230837 194.615 -0.285154 194.4 -0.285154V1.71485ZM193.581 0.900002L193.672 24.1L195.672 24.0922L195.581 0.892189L193.581 0.900002ZM193.672 24.0961C193.672 25.6358 193.306 27.0354 192.579 28.3144L194.318 29.3028C195.222 27.712 195.672 25.97 195.672 24.0961H193.672ZM192.585 28.3036C191.836 29.5846 190.848 30.5972 189.617 31.3554L190.665 33.0587C192.182 32.1252 193.4 30.8722 194.312 29.3136L192.585 28.3036ZM189.623 31.3512C188.415 32.0816 187.055 32.4531 185.519 32.4531V34.4531C187.396 34.4531 189.117 33.9939 190.658 33.0629L189.623 31.3512ZM198.32 32.7734L197.32 32.7706V32.7734H198.32ZM198.41 0.896095L199.41 0.898939V0.896095H198.41ZM212.253 1.98359L212.773 1.12936L212.765 1.12449L212.253 1.98359ZM215.538 5.35938L214.669 5.85452L214.672 5.85855L215.538 5.35938ZM213.68 16.393L213.031 15.6327L212.209 16.3353L212.973 17.1001L213.68 16.393ZM215.221 28.1289L216.082 28.6382L216.085 28.6317L215.221 28.1289ZM211.709 31.6859L212.223 32.5442L212.229 32.5403L211.709 31.6859ZM203.984 6.22031V5.22031H202.984V6.22031H203.984ZM203.984 13.5156H202.984V14.5156H203.984V13.5156ZM210.123 12.3828L210.874 13.0435L210.881 13.036L210.123 12.3828ZM210.055 7.33047L209.334 8.02273L209.341 8.03009L210.055 7.33047ZM203.984 19.1344V18.1344H202.989L202.984 19.1288L203.984 19.1344ZM203.938 27.3359L202.938 27.3304L202.933 28.3359H203.938V27.3359ZM206.816 32H198.501V34H206.816V32ZM198.501 32C198.661 32 198.94 32.0611 199.146 32.3187C199.318 32.5336 199.32 32.7421 199.32 32.7734H197.32C197.32 32.9558 197.352 33.2776 197.584 33.5681C197.85 33.9011 198.22 34 198.501 34V32ZM199.32 32.7763L199.41 0.898939L197.41 0.893253L197.32 32.7706L199.32 32.7763ZM199.41 0.896095C199.41 0.989824 199.386 1.24379 199.163 1.46726C198.939 1.69074 198.685 1.71485 198.591 1.71485V-0.285154C198.377 -0.285154 198.032 -0.230837 197.748 0.053051C197.464 0.336939 197.41 0.681534 197.41 0.896095H199.41ZM198.591 1.71485H207.518V-0.285154H198.591V1.71485ZM207.518 1.71485C209.084 1.71485 210.484 2.09387 211.741 2.8427L212.765 1.12449C211.182 0.181656 209.426 -0.285154 207.518 -0.285154V1.71485ZM211.733 2.83779C212.979 3.59603 213.953 4.59811 214.669 5.85451L216.407 4.86424C215.522 3.31127 214.307 2.06283 212.773 1.1294L211.733 2.83779ZM214.672 5.85855C215.383 7.0936 215.739 8.43143 215.739 9.89062H217.739C217.739 8.08732 217.294 6.40432 216.405 4.8602L214.672 5.85855ZM215.739 9.89062C215.739 11.0617 215.475 12.1398 214.948 13.1405L216.718 14.072C217.399 12.7768 217.739 11.3779 217.739 9.89062H215.739ZM214.948 13.1405C214.392 14.1968 213.749 15.0191 213.031 15.6327L214.33 17.1532C215.273 16.3471 216.065 15.3115 216.718 14.072L214.948 13.1405ZM212.973 17.1001C213.772 17.8988 214.395 18.8252 214.844 19.8865L216.686 19.1072C216.138 17.8123 215.371 16.6695 214.388 15.6859L212.973 17.1001ZM214.844 19.8865C215.289 20.9394 215.512 22.0453 215.512 23.2125H217.512C217.512 21.7818 217.237 20.4106 216.686 19.1072L214.844 19.8865ZM215.512 23.2125C215.512 24.8424 215.124 26.3063 214.357 27.6261L216.085 28.6317C217.04 26.9911 217.512 25.1774 217.512 23.2125H215.512ZM214.361 27.6196C213.568 28.959 212.514 30.026 211.19 30.8316L212.229 32.5403C213.835 31.5636 215.122 30.2592 216.082 28.6382L214.361 27.6196ZM211.196 30.8277C209.895 31.606 208.442 32 206.816 32V34C208.784 34 210.594 33.518 212.223 32.5442L211.196 30.8277ZM207.518 5.22031H203.984V7.22031H207.518V5.22031ZM202.984 6.22031V13.5156H204.984V6.22031H202.984ZM203.984 14.5156H207.518V12.5156H203.984V14.5156ZM207.518 14.5156C208.856 14.5156 210.006 14.03 210.874 13.0434L209.373 11.7222C208.912 12.246 208.324 12.5156 207.518 12.5156V14.5156ZM210.881 13.036C211.678 12.1115 212.12 11.0554 212.12 9.89062H210.12C210.12 10.5081 209.898 11.1135 209.366 11.7296L210.881 13.036ZM212.12 9.89062C212.12 8.63768 211.656 7.53576 210.77 6.63085L209.341 8.03009C209.875 8.57518 210.12 9.18003 210.12 9.89062H212.12ZM210.777 6.63824C209.888 5.71136 208.785 5.22031 207.518 5.22031V7.22031C208.214 7.22031 208.803 7.46938 209.334 8.02269L210.777 6.63824ZM206.816 18.1344H203.984V20.1344H206.816V18.1344ZM202.984 19.1288L202.938 27.3304L204.938 27.3415L204.984 19.1399L202.984 19.1288ZM203.938 28.3359H206.816V26.3359H203.938V28.3359ZM206.816 28.3359C208.208 28.3359 209.423 27.8153 210.407 26.813L208.979 25.412C208.362 26.0409 207.658 26.3359 206.816 26.3359V28.3359ZM210.407 26.813C211.386 25.8151 211.894 24.5987 211.894 23.2125H209.894C209.894 24.0617 209.601 24.7787 208.979 25.412L210.407 26.813ZM211.894 23.2125C211.894 21.8258 211.385 20.6134 210.4 19.6281L208.986 21.0423C209.602 21.658 209.894 22.3638 209.894 23.2125H211.894ZM210.4 19.6281C209.415 18.6427 208.202 18.1344 206.816 18.1344V20.1344C207.664 20.1344 208.37 20.4266 208.986 21.0423L210.4 19.6281Z" fill="black"/>
</g>
<defs>
<filter id="filter0_d_15_2" x="0.835205" y="0.601562" width="219.904" height="40.8516" filterUnits="userSpaceOnUse" color-interpolation-filters="sRGB">
<feFlood flood-opacity="0" result="BackgroundImageFix"/>
<feColorMatrix in="SourceAlpha" type="matrix" values="0 0 0 0 0 0 0 0 0 0 0 0 0 0 0 0 0 0 127 0" result="hardAlpha"/>
<feOffset dy="4"/>
<feGaussianBlur stdDeviation="2"/>
<feComposite in2="hardAlpha" operator="out"/>
<feColorMatrix type="matrix" values="0 0 0 0 0 0 0 0 0 0 0 0 0 0 0 0 0 0 0.25 0"/>
<feBlend mode="normal" in2="BackgroundImageFix" result="effect1_dropShadow_15_2"/>
<feBlend mode="normal" in="SourceGraphic" in2="effect1_dropShadow_15_2" result="shape"/>
</filter>
</defs>
</svg>
