<svg width="41" height="33" viewBox="0 0 41 33" fill="none" xmlns="http://www.w3.org/2000/svg">
<path d="M9.37656 32.9547L1.06172 33C0.910677 33 0.835156 32.9245 0.835156 32.7734L0.925781 0.896095C0.925781 0.775262 0.986198 0.714845 1.10703 0.714845L9.78437 0.669533C11.5062 0.62422 13.062 1.01693 14.4516 1.84766C15.8562 2.67839 16.974 3.80365 17.8047 5.22344C18.6505 6.62813 19.0734 8.18386 19.0734 9.89063V23.2125C19.0734 24.9948 18.643 26.626 17.782 28.1063C16.906 29.5714 15.743 30.7419 14.293 31.618C12.843 32.4789 11.2042 32.9245 9.37656 32.9547ZM9.78437 6.22031L6.54453 6.26563L6.49922 27.2906H9.37656C10.5245 27.2906 11.4911 26.8904 12.2766 26.0898C13.062 25.2893 13.4547 24.3302 13.4547 23.2125V9.84531C13.4547 8.86354 13.0922 8.01016 12.3672 7.28516C11.6422 6.54505 10.7812 6.19011 9.78437 6.22031Z" fill="white"/>
<path d="M28.1586 33H22.9023C22.7815 33 22.7211 32.9245 22.7211 32.7734L22.7664 0.896095C22.7664 0.775262 22.8419 0.714845 22.993 0.714845H28.1586C28.3096 0.714845 28.3852 0.775262 28.3852 0.896095L28.3398 13.5156H35.2953V0.896095C35.2953 0.775262 35.3557 0.714845 35.4766 0.714845H40.6422C40.7932 0.714845 40.8687 0.775262 40.8687 0.896095L40.9594 32.7734C40.9594 32.9245 40.8839 33 40.7328 33H35.5219C35.3708 33 35.2953 32.9245 35.2953 32.7734V19.1344H28.3398V32.7734C28.3398 32.9245 28.2794 33 28.1586 33Z" fill="#1A75FA"/>
</svg>
