<?xml version="1.0" standalone="no"?>
<!DOCTYPE svg PUBLIC "-//W3C//DTD SVG 20010904//EN"
 "http://www.w3.org/TR/2001/REC-SVG-20010904/DTD/svg10.dtd">
<svg version="1.0" xmlns="http://www.w3.org/2000/svg"
 width="100.000000pt" height="100.000000pt" viewBox="0 0 100.000000 100.000000"
 preserveAspectRatio="xMidYMid meet">

<g transform="translate(0.000000,100.000000) scale(0.100000,-0.100000)"
fill="#000000" stroke="none">
<path d="M20 820 c-19 -19 -20 -33 -20 -300 0 -267 1 -281 20 -300 15 -15 33
-20 70 -20 43 0 52 -3 59 -22 18 -46 59 -73 111 -73 52 0 93 27 111 73 8 21
13 22 129 22 l120 0 0 300 c0 287 -1 301 -20 320 -19 19 -33 20 -290 20 -257
0 -271 -1 -290 -20z m360 -102 c132 -67 132 -249 0 -316 -56 -28 -104 -28
-160 1 -132 66 -132 248 0 315 24 12 60 22 80 22 20 0 56 -10 80 -22z m-65
-443 c50 -49 15 -135 -55 -135 -41 0 -80 39 -80 80 0 19 9 40 25 55 15 16 36
25 55 25 19 0 40 -9 55 -25z"/>
<path d="M280 626 c0 -51 -3 -57 -34 -81 -21 -16 -33 -32 -29 -41 8 -21 21
-17 64 17 38 30 39 32 39 95 0 57 -2 64 -20 64 -18 0 -20 -7 -20 -54z"/>
<path d="M660 451 c0 -212 2 -250 15 -255 8 -3 15 -11 15 -19 0 -7 14 -26 31
-43 58 -55 161 -32 190 44 5 13 17 22 29 22 11 0 29 9 41 21 19 19 20 30 17
149 l-3 128 -40 58 c-22 32 -58 78 -81 101 l-41 43 -86 0 -87 0 0 -249z m199
163 c45 -51 101 -132 101 -146 0 -5 -44 -7 -97 -6 l-98 3 -3 98 -3 97 30 0
c22 0 39 -11 70 -46z m-4 -339 c50 -49 15 -135 -55 -135 -41 0 -80 39 -80 80
0 41 39 80 80 80 19 0 40 -9 55 -25z"/>
</g>
</svg>
